<svg xmlns="http://www.w3.org/2000/svg" viewBox="0 0 64 64">
  <rect width="64" height="64" rx="16" fill="#111827"/>
  <path d="M16 39c6.6-9.8 12.1-15.4 16.6-16.9 4.8-1.6 10.2.4 15.9 6" fill="none" stroke="#42D9B8" stroke-width="4" stroke-linecap="round"/>
  <path d="M18 45c7.5-4.5 14.2-6.1 20.1-4.7 3.4.8 6.7 2.6 9.9 5.3" fill="none" stroke="#F7F3EA" stroke-width="4" stroke-linecap="round"/>
  <path d="M40 18c0 6.7-8 15.2-8 15.2S24 24.7 24 18a8 8 0 1 1 16 0Z" fill="#FF6B4A"/>
  <circle cx="32" cy="18" r="3" fill="#F7F3EA"/>
  <path d="M47 18l2.3 4.6 5.1.8-3.7 3.6.9 5.1-4.6-2.4-4.6 2.4.9-5.1-3.7-3.6 5.1-.8L47 18Z" fill="#F2C36B"/>
</svg>
